<svg width="61" height="61" viewBox="0 0 61 61" fill="none" xmlns="http://www.w3.org/2000/svg">
<path d="M31.4242 2.89603e-10C30.934 2.89603e-10 30.4638 0.200837 30.1172 0.558328C29.7705 0.915819 29.5758 1.40068 29.5758 1.90625V11.8187C29.5758 17.0686 33.0028 21.4872 37.6721 22.8369C36.8588 33.2831 33.9308 41.0797 31.5315 45.8873C32.2117 46.7108 32.8513 47.3246 33.3504 47.7554C35.2691 49.41 36.9697 52.1054 36.9697 55.4681C36.9722 57.4587 36.3554 59.3977 35.2099 61H55.4545C56.9253 61 58.3358 60.3975 59.3758 59.325C60.4157 58.2525 61 56.798 61 55.2812V54.1108C61 52.7841 60.5601 51.5602 59.8835 50.5576C57.8872 47.5952 52.2345 38.0144 51.0515 22.8331C53.3817 22.1594 55.4345 20.7186 56.8968 18.7301C58.3592 16.7415 59.151 14.3144 59.1515 11.8187V1.90625C59.1515 1.40068 58.9568 0.915819 58.6101 0.558328C58.2634 0.200837 57.7933 2.89604e-10 57.303 2.89603e-10H54.5303C53.7949 2.89603e-10 53.0897 0.301254 52.5697 0.837491C52.0497 1.37373 51.7576 2.10102 51.7576 2.85938V5.71875C51.7581 5.96908 51.7107 6.21706 51.6183 6.44853C51.5258 6.68 51.3901 6.89042 51.2188 7.06779C50.8728 7.426 50.403 7.6278 49.9128 7.62881C49.4225 7.62982 48.952 7.42996 48.6046 7.07318C48.2573 6.71641 48.0616 6.23194 48.0606 5.72638V5.71875L48.0458 2.84413C48.0419 2.08842 47.7481 1.36504 47.2285 0.832093C46.7089 0.29915 46.0059 -1.07478e-05 45.2731 2.89603e-10H43.4542C42.7214 -1.07478e-05 42.0183 0.29915 41.4988 0.832093C40.9792 1.36504 40.6854 2.08842 40.6815 2.84413L40.6667 5.72638C40.6657 6.23194 40.47 6.71641 40.1226 7.07318C39.7753 7.42996 39.3047 7.62982 38.8145 7.62881C38.3242 7.6278 37.8545 7.426 37.5085 7.06779C37.1625 6.70958 36.9687 6.22432 36.9697 5.71875V2.85938C36.9697 2.10102 36.6776 1.37373 36.1576 0.837491C35.6376 0.301254 34.9323 2.89603e-10 34.197 2.89603e-10H31.4242ZM16.6364 11.4375C14.4954 11.4376 12.4001 12.0767 10.6036 13.2777C8.80708 14.4787 7.38603 16.1902 6.51199 18.2058C5.63796 20.2213 5.3483 22.4547 5.67799 24.6362C6.00767 26.8178 6.94261 28.8543 8.36994 30.5H7.39394C6.41344 30.5 5.4731 30.9017 4.77979 31.6167C4.08647 32.3316 3.69697 33.3014 3.69697 34.3125C3.69697 35.3236 4.08647 36.2934 4.77979 37.0083C5.4731 37.7233 6.41344 38.125 7.39394 38.125H9.31636C7.94109 44.9799 4.31436 48.9373 2.29212 50.6796C1.01297 51.7852 0 53.4856 0 55.4681C0 58.5219 2.40303 61 5.3643 61H27.9121C30.8697 61 33.2727 58.5219 33.2727 55.4681C33.2727 53.4856 32.2598 51.7852 30.9806 50.6796C28.9584 48.9373 25.3316 44.9799 23.9564 38.125H25.8788C26.8593 38.125 27.7996 37.7233 28.4929 37.0083C29.1863 36.2934 29.5758 35.3236 29.5758 34.3125C29.5758 33.3014 29.1863 32.3316 28.4929 31.6167C27.7996 30.9017 26.8593 30.5 25.8788 30.5H24.9028C26.3301 28.8543 27.2651 26.8178 27.5947 24.6362C27.9244 22.4547 27.6348 20.2213 26.7607 18.2058C25.8867 16.1902 24.4656 14.4787 22.6691 13.2777C20.8726 12.0767 18.7774 11.4376 16.6364 11.4375Z" fill="white"/>
</svg>
