<svg width="61" height="61" viewBox="0 0 61 61" fill="none" xmlns="http://www.w3.org/2000/svg">
<path d="M22.4389 12.6038C21.9081 12.0746 21.2526 11.6876 20.5327 11.4784C19.8129 11.2692 19.052 11.2447 18.3202 11.4071C17.5883 11.5694 16.9092 11.9135 16.3455 12.4074C15.7817 12.9014 15.3515 13.5293 15.0945 14.2333L0.267242 55.0073C0.023666 55.6797 -0.0550119 56.4007 0.0378121 57.1098C0.130636 57.8188 0.392253 58.4953 0.800702 59.0824C1.20915 59.6694 1.75251 60.15 2.38517 60.4837C3.01783 60.8173 3.72133 60.9944 4.4366 61C4.96324 60.9964 5.48521 60.9008 5.97893 60.7176L46.7602 45.8912C47.4646 45.6346 48.093 45.2047 48.5873 44.6412C49.0817 44.0777 49.4262 43.3988 49.5889 42.6672C49.7515 41.9355 49.7273 41.1746 49.5182 40.4548C49.3092 39.735 48.9222 39.0794 48.3929 38.5486L22.4389 12.6038ZM20.0858 50.7881L10.1991 40.9039L13.9165 30.6779L30.3143 47.0717L20.0858 50.7881ZM4.5496 56.4363L8.50428 45.589L15.4108 52.4939L4.5496 56.4363ZM35.0119 45.3659L15.6227 25.9815L19.2949 15.8515L45.1218 41.672L35.0119 45.3659ZM36.1418 18.0741C36.1843 16.5467 36.5542 15.0463 37.2266 13.6742C38.7237 10.6835 41.5485 9.03704 45.1811 9.03704C47.0737 9.03704 48.2884 8.39032 49.0369 7.00088C49.4311 6.22355 49.6573 5.372 49.7008 4.50157C49.703 3.90238 49.9432 3.32862 50.3686 2.90652C50.794 2.48441 51.3697 2.24854 51.969 2.25079C52.5684 2.25303 53.1423 2.49322 53.5645 2.9185C53.9867 3.34378 54.2226 3.91933 54.2204 4.51852C54.2204 8.15028 51.8137 13.5556 45.1811 13.5556C43.2885 13.5556 42.0739 14.2023 41.3253 15.5917C40.9311 16.369 40.705 17.2206 40.6615 18.091C40.6604 18.3877 40.6008 18.6813 40.4862 18.955C40.3716 19.2286 40.2042 19.4771 39.9936 19.6861C39.783 19.8951 39.5332 20.0606 39.2586 20.1731C38.984 20.2856 38.69 20.3429 38.3932 20.3418C38.0964 20.3407 37.8028 20.2812 37.529 20.1666C37.2553 20.052 37.0068 19.8847 36.7977 19.6741C36.5887 19.4635 36.4232 19.2138 36.3106 18.9393C36.1981 18.6648 36.1407 18.3708 36.1418 18.0741ZM29.3624 9.03704V2.25926C29.3624 1.66007 29.6005 1.08541 30.0243 0.661722C30.4481 0.238028 31.0229 0 31.6222 0C32.2216 0 32.7963 0.238028 33.2201 0.661722C33.6439 1.08541 33.882 1.66007 33.882 2.25926V9.03704C33.882 9.63623 33.6439 10.2109 33.2201 10.6346C32.7963 11.0583 32.2216 11.2963 31.6222 11.2963C31.0229 11.2963 30.4481 11.0583 30.0243 10.6346C29.6005 10.2109 29.3624 9.63623 29.3624 9.03704ZM58.079 32.2905C58.2888 32.5004 58.4552 32.7495 58.5686 33.0237C58.6821 33.2979 58.7404 33.5918 58.7403 33.8885C58.7401 34.1852 58.6816 34.479 58.5679 34.7531C58.4542 35.0272 58.2876 35.2762 58.0776 35.4859C57.8677 35.6956 57.6184 35.8619 57.3442 35.9754C57.0699 36.0888 56.776 36.1471 56.4792 36.147C56.1824 36.1469 55.8885 36.0883 55.6144 35.9746C55.3402 35.8609 55.0912 35.6944 54.8814 35.4845L50.3617 30.966C49.9377 30.542 49.6995 29.9671 49.6995 29.3675C49.6995 28.768 49.9377 28.193 50.3617 27.7691C50.7858 27.3452 51.3609 27.107 51.9606 27.107C52.5602 27.107 53.1354 27.3452 53.5594 27.7691L58.079 32.2905ZM59.4547 20.2175L52.6752 22.4768C52.1066 22.6663 51.486 22.6222 50.9499 22.3542C50.4138 22.0862 50.0061 21.6163 49.8166 21.0478C49.627 20.4793 49.6711 19.8589 49.9392 19.3229C50.2072 18.7869 50.6773 18.3794 51.2459 18.1899L58.0254 15.9306C58.594 15.7411 59.2146 15.7852 59.7507 16.0532C60.2868 16.3212 60.6945 16.7911 60.884 17.3596C61.0736 17.9281 61.0295 18.5485 60.7614 19.0845C60.4934 19.6205 60.0233 20.0281 59.4547 20.2175Z" fill="white"/>
</svg>
