<svg width="92" height="61" viewBox="0 0 92 61" fill="none" xmlns="http://www.w3.org/2000/svg">
<path d="M69.1157 60.4514C65.2567 60.4514 61.8318 59.4384 58.841 57.4124C55.8503 55.3864 53.4867 52.6369 51.7501 49.1637C50.0135 45.6906 49.1453 41.8316 49.1453 37.5867C49.1453 30.6404 51.4124 23.8389 55.9468 17.1821C60.5776 10.4288 67.0897 4.88145 75.4831 0.540039L91.691 9.22285C86.1919 11.9242 81.5128 15.0596 77.6538 18.6292C73.8912 22.1988 71.3346 26.3955 69.984 31.2193C74.5183 31.6052 78.1844 33.0041 80.9822 35.416C83.8765 37.7314 85.3236 40.9633 85.3236 45.1118C85.3236 49.2602 83.8282 52.8781 80.8375 55.9653C77.9432 58.956 74.036 60.4514 69.1157 60.4514ZM20.7814 60.4514C16.9224 60.4514 13.4975 59.4384 10.5068 57.4124C7.51603 55.3864 5.15238 52.6369 3.41582 49.1637C1.67925 45.6906 0.810974 41.8316 0.810974 37.5867C0.810974 30.6404 3.07815 23.8389 7.6125 17.1821C12.2433 10.4288 18.7554 4.88145 27.1488 0.540039L43.3567 9.22285C37.8576 11.9242 33.1785 15.0596 29.3195 18.6292C25.557 22.1988 23.0004 26.3955 21.6497 31.2193C26.1841 31.6052 29.8501 33.0041 32.6479 35.416C35.5422 37.7314 36.9893 40.9633 36.9893 45.1118C36.9893 49.2602 35.494 52.8781 32.5032 55.9653C29.6089 58.956 25.7017 60.4514 20.7814 60.4514Z" fill="white"/>
</svg>
